<?xml version="1.0" standalone="no"?>
<!DOCTYPE svg PUBLIC "-//W3C//DTD SVG 20010904//EN"
 "http://www.w3.org/TR/2001/REC-SVG-20010904/DTD/svg10.dtd">
<svg version="1.0" xmlns="http://www.w3.org/2000/svg"
 width="1024.000000pt" height="1024.000000pt" viewBox="0 0 1024.000000 1024.000000"
 preserveAspectRatio="xMidYMid meet">

<g transform="translate(0.000000,1024.000000) scale(0.100000,-0.100000)"
fill="#000000" stroke="none">
<path d="M8725 8693 c-59 -8 -141 -35 -185 -60 -28 -16 -504 -485 -1253 -1232
l-1208 -1206 -73 -7 c-107 -10 -189 -33 -292 -83 -181 -87 -300 -206 -436
-435 -95 -159 -155 -237 -246 -320 -222 -204 -511 -302 -789 -269 -102 13
-103 13 -128 -11 -40 -38 -33 -69 34 -152 90 -111 254 -275 368 -366 311 -250
694 -422 1103 -494 117 -20 482 -17 595 5 145 29 252 65 380 127 256 125 448
320 566 575 56 123 79 224 86 390 l6 139 202 286 c111 157 243 346 295 420
229 331 407 591 542 790 80 118 229 337 331 485 445 648 545 801 566 870 67
217 -43 445 -253 524 -53 20 -159 32 -211 24z m142 -158 c73 -22 146 -90 172
-161 12 -30 21 -58 21 -63 0 -10 -108 -81 -124 -81 -6 0 -34 -23 -61 -51 -28
-29 -44 -48 -37 -44 11 6 11 3 0 -14 -13 -22 -34 -30 -22 -8 4 6 3 9 -1 4 -5
-4 -10 -15 -11 -25 -2 -9 -4 -26 -6 -37 -2 -12 2 -19 10 -17 9 1 8 -5 -4 -23
-16 -25 -31 -36 -18 -12 4 7 3 8 -2 4 -5 -5 -9 -16 -9 -25 0 -9 -6 -16 -13
-14 -8 1 -11 -2 -8 -6 7 -12 -112 -178 -125 -174 -6 1 -8 -2 -5 -7 3 -5 -2
-17 -12 -28 -9 -10 -13 -12 -7 -3 6 10 2 8 -13 -4 -23 -20 -31 -43 -10 -30 7
4 2 -7 -11 -24 -25 -36 -28 -38 -28 -17 0 8 4 12 8 10 4 -3 9 2 12 10 5 12 2
12 -18 3 -14 -6 -25 -15 -25 -20 0 -4 -6 -8 -14 -8 -7 0 -16 -14 -20 -31 -7
-38 -45 -72 -63 -57 -7 6 -13 7 -13 2 0 -5 -4 -3 -9 4 -8 14 -62 -44 -260
-283 -410 -495 -561 -667 -623 -705 -29 -19 -55 -35 -57 -37 -3 -2 11 -20 30
-40 21 -23 9 -15 -35 22 -99 82 -202 158 -350 255 l-129 85 817 812 c735 731
821 813 864 827 95 30 137 32 209 11z m11 -415 c-7 -10 -14 -17 -17 -15 -4 4
18 35 25 35 2 0 -1 -9 -8 -20z m-368 -514 c0 -2 -8 -10 -17 -17 -16 -13 -17
-12 -4 4 13 16 21 21 21 13z m-1564 -877 c106 -65 295 -193 344 -233 71 -59
277 -266 322 -323 l40 -52 -102 -147 -102 -146 -107 113 c-178 188 -496 436
-682 530 l-62 31 134 134 c73 74 137 134 141 134 4 0 38 -18 74 -41z m-369
-374 c191 -86 617 -440 740 -615 l31 -46 -71 -105 c-40 -58 -80 -116 -90 -129
l-17 -25 -32 40 c-190 235 -511 486 -827 645 l-64 32 119 119 c130 130 118
126 211 84z m-371 -344 c111 -54 265 -144 358 -209 90 -63 357 -296 306 -266
-8 5 -22 7 -31 6 -17 -3 -46 25 -36 35 4 3 -9 22 -29 41 -19 19 -39 31 -43 26
-5 -5 -18 -35 -31 -66 -32 -79 -103 -170 -223 -285 -89 -85 -109 -110 -39 -49
25 22 52 30 52 15 0 -5 15 -2 33 7 31 16 31 16 17 -1 -14 -17 -14 -18 8 -6 12
7 20 17 16 23 -4 7 -3 8 5 4 6 -4 14 0 17 8 8 21 24 21 24 0 0 -8 5 -12 10 -9
6 3 10 1 10 -5 0 -6 5 -8 10 -5 6 3 10 1 10 -4 0 -6 11 -11 25 -11 14 0 25 5
25 10 0 6 11 10 25 10 30 0 31 -9 5 -63 -27 -55 -20 -118 12 -112 11 3 17 1
14 -3 -4 -4 -13 -7 -19 -7 -7 0 -11 -8 -11 -18 3 -32 -209 -192 -310 -233 -25
-11 -46 -23 -46 -27 0 -5 -4 -6 -9 -2 -5 3 -12 1 -16 -5 -4 -6 -11 -7 -17 -4
-6 4 -8 -1 -6 -12 3 -17 13 -19 88 -18 190 2 362 87 506 251 101 114 152 163
171 163 14 0 15 -11 10 -82 -3 -46 -16 -117 -27 -158 -22 -78 -78 -201 -108
-235 -9 -11 -16 -18 -15 -16 1 2 -9 15 -23 29 -14 16 -24 39 -24 57 l0 30 -27
-35 c-47 -62 -176 -185 -239 -228 -173 -116 -335 -170 -539 -179 -113 -5 -237
6 -253 21 -2 3 28 35 67 72 84 79 130 140 161 212 32 75 21 83 -72 52 -40 -12
-67 -25 -61 -27 9 -3 10 -10 3 -24 -8 -14 -22 -19 -56 -19 -28 0 -43 4 -39 10
3 6 1 10 -4 10 -6 0 -11 -4 -11 -10 0 -5 -3 -9 -7 -8 -5 1 -30 -5 -58 -14 -53
-18 -175 -37 -253 -40 l-47 -1 55 -7 c30 -4 45 -7 33 -8 -12 -1 -25 -6 -28
-12 -9 -15 -66 -12 -120 7 -40 13 -46 18 -30 24 11 4 15 8 8 8 -53 3 -185 27
-265 47 -103 26 -115 28 -105 18 11 -11 -45 -53 -61 -46 -9 3 -13 1 -9 -5 4
-6 0 -14 -8 -17 -17 -6 -115 50 -115 65 0 6 -6 7 -12 3 -8 -5 -7 0 2 11 8 10
10 16 4 12 -13 -8 -24 14 -24 48 0 17 -8 26 -32 35 -18 6 -64 31 -103 56 -38
24 -87 52 -107 62 -21 9 -38 20 -38 23 0 4 21 10 46 14 63 9 232 69 313 110
212 107 392 293 545 559 127 221 297 358 516 415 121 32 182 28 276 -18z m521
-463 c-3 -7 -5 -2 -5 12 0 14 2 19 5 13 2 -7 2 -19 0 -25z m133 -238 c-12 -28
-14 -29 -26 -13 -7 10 -13 23 -14 28 0 6 5 3 10 -5 7 -11 10 -11 10 -2 0 7 5
10 10 7 6 -3 10 2 10 11 0 10 3 14 6 11 4 -4 1 -20 -6 -37z m-57 -52 c-23 -47
-23 -46 -23 6 0 43 2 46 19 36 18 -9 19 -12 4 -42z m-2102 -495 c13 -16 12
-17 -3 -4 -17 13 -22 21 -14 21 2 0 10 -8 17 -17z m299 -189 c0 -2 -9 0 -20 6
-11 6 -20 13 -20 16 0 2 9 0 20 -6 11 -6 20 -13 20 -16z m65 -32 c-3 -3 -11 0
-18 7 -9 10 -8 11 6 5 10 -3 15 -9 12 -12z m593 -149 c-10 -2 -26 -2 -35 0
-10 3 -2 5 17 5 19 0 27 -2 18 -5z"/>
<path d="M6494 5234 c-18 -14 -18 -15 4 -4 12 6 22 13 22 15 0 8 -5 6 -26 -11z"/>
<path d="M6567 5188 c-15 -34 -25 -63 -23 -65 2 -2 15 24 30 58 15 33 26 62
24 64 -2 2 -16 -24 -31 -57z"/>
<path d="M6445 5210 c-3 -6 1 -7 9 -4 18 7 21 14 7 14 -6 0 -13 -4 -16 -10z"/>
<path d="M6365 5180 c-13 -6 -15 -9 -5 -9 8 0 22 4 30 9 18 12 2 12 -25 0z"/>
<path d="M6449 4973 c-13 -16 -12 -17 4 -4 9 7 17 15 17 17 0 8 -8 3 -21 -13z"/>
<path d="M6409 4923 l-24 -28 28 24 c15 14 27 26 27 28 0 8 -8 1 -31 -24z"/>
<path d="M2750 7484 c-184 -39 -346 -186 -400 -361 -19 -61 -20 -93 -20 -499
l0 -434 65 0 65 0 -1 43 c-1 28 -3 35 -7 21 -6 -18 -11 -19 -39 -12 -35 9 -57
36 -68 79 l-6 26 98 6 c54 4 874 7 1823 8 l1725 1 64 69 64 69 -1822 0 -1822
0 3 278 3 277 27 58 c35 74 117 160 183 193 117 57 -16 54 2225 50 l2065 -4
75 74 75 74 -2155 -1 c-1813 0 -2165 -3 -2220 -15z"/>
<path d="M2910 7049 c-70 -28 -110 -106 -90 -178 28 -104 169 -137 248 -58 30
30 36 44 40 89 3 44 0 59 -20 88 -40 60 -114 84 -178 59z"/>
<path d="M3442 7040 c-51 -32 -74 -76 -69 -138 6 -81 64 -132 150 -132 116 0
185 134 119 228 -43 60 -138 80 -200 42z"/>
<path d="M3974 7016 c-30 -29 -45 -53 -46 -72 -5 -106 50 -174 142 -174 84 0
141 52 148 135 4 48 1 59 -23 91 -32 42 -78 64 -136 64 -36 0 -48 -6 -85 -44z"/>
<path d="M8140 6222 c0 -5 -29 -50 -65 -100 l-65 -91 0 -1703 c0 -1058 -4
-1726 -10 -1763 -27 -165 -145 -302 -324 -373 -36 -15 -127 -17 -802 -22 -731
-5 -763 -6 -783 -24 -29 -26 -27 -71 4 -101 l24 -25 718 0 c421 0 746 5 787
10 226 33 415 187 499 407 l22 58 5 1868 c3 1027 2 1867 -2 1867 -5 0 -8 -4
-8 -8z"/>
<path d="M2269 5981 c-31 -25 -30 -88 1 -113 19 -15 43 -18 162 -18 134 0 140
1 163 25 14 13 25 36 25 50 0 14 -11 37 -25 50 -23 24 -29 25 -163 25 -122 0
-143 -2 -163 -19z"/>
<path d="M2870 5980 c-12 -12 -20 -33 -20 -52 0 -67 27 -78 184 -78 72 0 136
5 150 11 51 23 55 103 7 128 -11 6 -80 11 -160 11 -128 0 -143 -2 -161 -20z"/>
<path d="M3492 5993 c-7 -3 -19 -17 -27 -33 -19 -37 -3 -87 32 -101 13 -5 83
-9 154 -9 125 0 131 1 154 25 14 13 25 36 25 50 0 14 -11 37 -25 50 -23 24
-28 25 -162 24 -76 0 -144 -3 -151 -6z"/>
<path d="M4080 5980 c-12 -12 -20 -33 -20 -52 0 -69 24 -78 199 -75 128 2 144
4 157 21 22 30 17 74 -11 101 -23 24 -29 25 -165 25 -127 0 -142 -2 -160 -20z"/>
<path d="M4685 5975 c-34 -33 -33 -77 1 -104 24 -19 40 -21 159 -21 119 0 135
2 159 21 33 26 36 79 6 109 -18 18 -33 20 -160 20 -136 0 -142 -1 -165 -25z"/>
<path d="M1905 5951 c-75 -34 -126 -111 -140 -209 -6 -46 -4 -54 19 -77 29
-29 69 -32 94 -7 10 10 24 43 31 75 9 43 20 62 44 81 60 47 67 56 67 86 0 33
-30 70 -57 70 -10 0 -36 -9 -58 -19z"/>
<path d="M2465 5506 c-55 -25 -100 -71 -122 -124 -21 -51 -19 -998 3 -1050 19
-47 58 -88 109 -115 39 -22 50 -22 519 -25 329 -2 495 1 533 8 64 14 122 60
156 124 22 40 22 50 25 515 3 534 2 547 -64 615 -75 78 -58 76 -614 76 l-495
0 -50 -24z m1034 -142 c35 -29 47 -67 46 -144 0 -30 -2 -227 -3 -438 l-2 -384
-29 -29 -29 -29 -480 0 -479 0 -27 26 -26 27 0 462 c0 457 0 463 21 489 12 15
31 32 43 36 11 5 227 9 478 9 l456 1 31 -26z"/>
<path d="M1779 5393 c-10 -11 -15 -58 -17 -169 -3 -153 -3 -154 22 -179 32
-32 66 -32 100 1 26 26 26 29 26 169 0 129 -2 145 -21 169 -25 31 -88 37 -110
9z"/>
<path d="M1780 4763 c-21 -27 -22 -35 -17 -181 5 -164 8 -175 58 -187 19 -5
34 0 57 20 l32 27 0 149 c0 146 -1 151 -25 174 -33 34 -77 33 -105 -2z"/>
<path d="M4242 4145 c-17 -14 -39 -48 -50 -78 -17 -44 -26 -55 -64 -74 l-45
-21 -58 29 c-32 16 -65 29 -73 29 -28 0 -82 -42 -142 -111 -52 -61 -60 -75
-60 -111 0 -25 9 -57 24 -82 24 -41 24 -41 6 -86 -13 -34 -23 -46 -41 -48 -13
-1 -43 -10 -67 -18 -62 -23 -72 -49 -72 -192 0 -145 10 -164 94 -183 67 -15
68 -15 90 -66 18 -41 18 -42 -4 -74 -14 -18 -25 -52 -28 -81 l-5 -49 85 -85
c76 -76 88 -84 122 -84 22 0 57 11 85 26 l46 26 46 -20 c43 -19 48 -24 60 -73
8 -31 25 -64 42 -81 28 -28 30 -28 148 -28 159 0 192 18 205 113 6 46 9 50 53
69 l45 19 39 -22 c58 -32 105 -40 137 -24 34 18 156 147 165 175 10 32 -2 81
-29 120 l-23 35 20 42 c12 24 30 45 41 48 74 20 100 32 122 58 22 26 24 36 24
140 0 144 -12 168 -97 193 -66 20 -90 41 -99 89 -5 26 -1 41 17 67 34 47 32
102 -6 152 -43 56 -153 146 -179 146 -12 0 -45 -12 -74 -26 -51 -25 -53 -25
-95 -9 -40 15 -45 22 -60 69 -9 29 -29 63 -43 77 -24 22 -34 24 -148 27 -120
3 -123 3 -154 -23z m239 -155 c12 -33 27 -64 33 -68 23 -15 160 -72 172 -72 8
0 38 12 69 27 l55 27 46 -45 45 -46 -27 -56 -28 -57 24 -71 c39 -111 49 -124
124 -149 l66 -22 0 -67 0 -67 -64 -23 c-74 -26 -86 -38 -111 -103 -10 -27 -21
-48 -24 -48 -11 0 -12 -62 -2 -96 8 -28 7 -31 -9 -27 -11 3 -26 -4 -37 -17
-10 -12 -35 -29 -55 -37 -45 -18 -47 -27 -10 -47 37 -21 21 -20 -22 1 -33 15
-37 15 -86 -6 -29 -12 -54 -20 -56 -18 -3 2 9 10 26 17 16 7 30 18 30 25 0 8
6 16 13 18 7 3 5 6 -5 6 -10 1 -18 -5 -19 -11 0 -7 -4 -4 -9 7 l-9 20 0 -20
c-1 -17 -3 -17 -11 -5 -7 11 -10 11 -10 2 0 -7 -4 -11 -9 -7 -11 6 -127 -43
-119 -51 4 -3 24 4 47 16 32 16 41 17 41 6 0 -12 -18 -22 -60 -31 -8 -2 -16
-9 -18 -14 -2 -6 -10 -11 -18 -11 -7 0 -20 -13 -29 -29 -13 -26 -20 -29 -70
-33 -54 -3 -57 -2 -75 29 -21 36 -47 51 -142 82 l-66 22 -51 -25 c-28 -14 -54
-26 -58 -26 -4 1 -27 18 -51 39 l-42 39 29 62 c29 61 29 64 15 99 -9 20 -23
55 -31 79 -18 52 -50 78 -120 98 l-54 16 3 70 3 71 60 19 c33 10 66 25 74 33
17 16 71 152 71 178 0 10 -12 41 -26 69 l-26 51 45 44 44 45 62 -31 61 -31 38
18 c20 11 60 27 89 36 60 20 66 25 87 90 9 27 19 53 22 58 3 4 36 8 74 8 l69
0 22 -60z m69 -1104 c0 -2 -9 -6 -20 -9 -11 -3 -18 -1 -14 4 5 9 34 13 34 5z"/>
<path d="M4331 3650 c-76 -16 -138 -67 -178 -145 -63 -123 -13 -279 110 -342
69 -35 181 -38 242 -6 119 63 173 198 129 325 -41 120 -174 194 -303 168z
m118 -128 c132 -67 87 -275 -60 -275 -111 0 -180 129 -121 225 39 63 115 84
181 50z"/>
<path d="M4663 3009 c-34 -22 -40 -29 -24 -29 10 0 70 49 61 50 -3 0 -20 -10
-37 -21z"/>
<path d="M4166 2931 c5 -5 20 -12 34 -15 l25 -7 -25 15 c-28 17 -50 21 -34 7z"/>
<path d="M1786 4144 c-26 -25 -29 -59 -23 -203 6 -123 8 -138 28 -153 30 -25
66 -22 94 7 24 23 25 29 25 168 0 131 -2 147 -21 171 -24 30 -78 36 -103 10z"/>
<path d="M5625 3805 c-24 -23 -25 -29 -25 -160 0 -131 1 -137 25 -160 13 -14
31 -25 40 -25 20 0 57 19 67 34 4 6 8 75 8 153 0 141 0 142 -26 162 -35 27
-59 26 -89 -4z"/>
<path d="M2330 3592 c0 -55 4 -92 12 -100 9 -9 130 -12 483 -12 544 0 505 -7
505 96 0 111 -10 118 -81 64 l-36 -28 -369 -8 c-203 -4 -355 -11 -339 -15 l30
-7 -33 -1 c-25 -1 -42 8 -75 38 -39 35 -77 61 -91 61 -3 0 -6 -40 -6 -88z"/>
<path d="M1803 3530 c-37 -15 -43 -42 -42 -177 2 -161 6 -184 42 -201 33 -16
81 -2 97 29 11 19 14 287 4 314 -6 15 -54 46 -71 44 -4 0 -18 -4 -30 -9z"/>
<path d="M6127 3492 c-13 -15 -17 -39 -17 -115 0 -85 2 -98 19 -107 31 -16
1312 -14 1333 3 17 12 22 51 19 139 l-1 48 -37 -17 c-21 -10 -55 -32 -76 -50
l-37 -33 -545 0 -544 0 -21 22 c-11 12 -32 46 -46 75 -13 29 -26 53 -28 53 -1
0 -10 -8 -19 -18z"/>
<path d="M2341 3361 c-6 -11 -11 -49 -11 -84 0 -104 -38 -97 502 -97 419 0
467 2 479 16 18 22 13 143 -7 164 -13 13 -14 13 -9 -1 4 -12 -3 -20 -25 -29
-18 -7 -36 -24 -41 -37 l-9 -24 -390 3 -390 3 -32 40 c-18 21 -33 44 -33 49 0
19 -24 17 -34 -3z"/>
<path d="M5642 3240 c-12 -5 -27 -21 -32 -35 -13 -33 -13 -256 -1 -288 17 -44
87 -53 119 -14 14 16 20 266 8 303 -3 12 -18 26 -32 32 -29 14 -31 14 -62 2z"/>
<path d="M6108 2903 c-3 -94 1 -127 18 -140 12 -9 180 -11 676 -10 590 2 661
4 671 18 8 10 11 45 9 92 l-4 77 -50 -28 c-27 -15 -64 -35 -81 -45 -30 -16
-72 -17 -580 -15 l-548 3 -25 32 c-14 18 -38 42 -54 53 l-30 21 -2 -58z"/>
<path d="M1785 2885 c-24 -23 -25 -28 -25 -175 0 -149 0 -151 26 -177 20 -20
31 -24 57 -19 58 12 62 22 65 191 3 154 3 155 -22 180 -32 32 -70 32 -101 0z"/>
<path d="M2558 2903 c7 -3 16 -2 19 1 4 3 -2 6 -13 5 -11 0 -14 -3 -6 -6z"/>
<path d="M3178 2883 c6 -2 18 -2 25 0 6 3 1 5 -13 5 -14 0 -19 -2 -12 -5z"/>
<path d="M3059 2853 c-30 -16 -53 -34 -51 -41 1 -8 -2 -11 -7 -8 -12 8 -56
-50 -65 -84 -6 -22 -5 -21 10 5 9 17 21 33 26 36 5 3 9 9 9 13 -2 16 0 16 16
1 16 -16 18 -16 34 4 9 11 29 21 42 21 26 0 45 29 32 50 -3 6 4 14 17 19 14 6
17 10 7 10 -8 1 -40 -11 -70 -26z"/>
<path d="M3277 2842 c-23 -25 -21 -64 3 -92 30 -35 34 -63 15 -119 -30 -90
-108 -134 -195 -111 -40 11 -55 22 -92 68 -23 29 -83 30 -98 3 -45 -84 50
-236 173 -277 68 -23 177 -15 240 16 173 87 226 306 111 458 -51 66 -124 91
-157 54z"/>
<path d="M3007 2679 c4 -13 8 -18 11 -10 2 7 -1 18 -6 23 -8 8 -9 4 -5 -13z"/>
<path d="M2912 2640 c0 -14 2 -19 5 -12 2 6 2 18 0 25 -3 6 -5 1 -5 -13z"/>
<path d="M5621 2634 c-19 -24 -21 -40 -21 -149 0 -109 2 -125 21 -149 24 -30
63 -34 97 -10 21 14 22 22 22 159 0 137 -1 145 -22 159 -34 24 -73 20 -97 -10z"/>
<path d="M1820 2273 c-37 -14 -50 -36 -50 -88 0 -111 60 -204 153 -240 43 -16
48 -16 72 -1 50 33 45 103 -9 129 -45 21 -65 52 -75 117 -5 28 -14 57 -22 65
-18 16 -50 25 -69 18z"/>
<path d="M5635 2126 c-11 -8 -24 -29 -30 -47 -8 -23 -23 -39 -45 -50 -54 -26
-65 -75 -25 -114 29 -30 63 -32 115 -5 44 22 88 87 97 144 10 62 -62 109 -112
72z"/>
<path d="M2250 2010 c-24 -24 -26 -67 -4 -98 14 -21 22 -22 155 -22 126 0 141
2 159 20 12 12 20 33 20 54 0 58 -23 66 -177 66 -120 0 -135 -2 -153 -20z"/>
<path d="M2812 2014 c-16 -11 -22 -25 -22 -53 0 -65 16 -71 178 -71 134 0 142
1 156 22 9 12 16 37 16 55 0 54 -25 63 -175 63 -102 0 -135 -3 -153 -16z"/>
<path d="M3370 2010 c-11 -11 -20 -33 -20 -50 0 -17 9 -39 20 -50 18 -18 33
-20 160 -20 127 0 142 2 160 20 11 11 20 33 20 50 0 17 -9 39 -20 50 -18 18
-33 20 -160 20 -127 0 -142 -2 -160 -20z"/>
<path d="M3940 2010 c-24 -24 -26 -67 -4 -98 14 -21 22 -22 158 -22 126 0 145
2 159 18 23 25 21 78 -3 102 -18 18 -33 20 -155 20 -122 0 -137 -2 -155 -20z"/>
<path d="M4502 2014 c-26 -18 -30 -69 -6 -102 14 -21 22 -22 154 -22 76 0 145
3 154 6 24 9 40 68 25 96 -7 13 -17 26 -23 30 -6 4 -72 8 -146 8 -107 0 -140
-3 -158 -16z"/>
<path d="M5050 2010 c-24 -24 -26 -67 -4 -98 14 -21 22 -22 150 -22 121 0 136
2 154 20 24 24 26 67 4 98 -14 21 -22 22 -150 22 -121 0 -136 -2 -154 -20z"/>
</g>
</svg>
